<svg width="79" height="57" viewBox="0 0 79 57" fill="none" xmlns="http://www.w3.org/2000/svg">
<rect width="57" height="57" fill="#1F1E1E"/>
<path d="M15.4969 28.0887H10.3274V19.4002H10.3146V19.3875H8.49756V28.3062H15.4969V28.0887Z" fill="white"/>
<path d="M17.0348 28.3062H24.0598V28.0887H18.8519V23.7637H22.921V23.5333H18.8519V19.605H24.0598V19.3875H17.0348V28.3062Z" fill="white"/>
<path d="M27.4141 28.3062V19.605C28.5274 19.605 31.9567 20.0272 32.2126 24.9921V28.3062H34.0296V19.3875H32.2126V23.3926C31.6624 21.0125 29.9221 19.3875 27.4141 19.3875H25.5971V28.3062H27.4141Z" fill="white"/>
<path d="M37.7633 28.3062V19.605C38.8766 19.605 42.3059 20.0272 42.5618 24.9921V28.3062H44.3788V19.3875H42.5618V23.3926C42.0116 21.0125 40.2713 19.3875 37.7633 19.3875H35.9463V28.3062H37.7633Z" fill="white"/>
<path d="M46.2955 28.3062H48.1125V19.3875H46.2955V28.3062Z" fill="white"/>
<rect x="31.0269" y="35" width="47" height="17" fill="#BC3324"/>
<path d="M42.2352 48.0818H42.4446L43.5846 44.7665H46.8999L48.1911 48.0818H49.9244L46.7836 39.9738H45.0271L42.2352 48.0818ZM45.1434 40.2297L46.8301 44.5687H43.6544L45.1434 40.2297Z" fill="white"/>
<path d="M51.4332 39.9738V48.0818H53.085V45.2783H55.051L56.9471 48.0701H58.8316L56.8308 45.1038C57.994 44.8014 58.8781 44.0801 58.8781 42.4632C58.8781 40.4391 57.4008 39.7993 55.6791 39.7993C53.8644 39.7993 53.341 41.1603 53.085 42.6726V39.9738H51.4332ZM53.5387 41.6722C53.8528 40.5322 54.6671 40.0669 55.3883 40.0087C57.1216 39.8458 57.1914 40.9509 57.1914 42.4632C57.1914 44.9177 55.8885 45.0805 54.7718 45.0805H53.085C53.085 45.0805 53.0385 43.4752 53.5387 41.6722Z" fill="white"/>
<path d="M62.8487 40.1716L62.8604 48.0818H64.5122V40.1716H67.8508V39.9738H59.5102V40.1716H62.8487Z" fill="white"/>
</svg>
